Coordinates
version=1
nRows=20
nColumns=30
inDegrees=yes

Units are S.I. units (second, meters, Newtons, ...)
Angles are in degrees.

endheader
time	floatyaw	floatroll	floatpitch	floatx	floaty	floatz	pro_sup_l	deviation_l	flexion_l	cmc_flexion_l	cmc_abduction_l	mp_flexion_l	ip_flexion_l	2mcp_flexion_l	2mcp_abduction_l	2pm_flexion_l	2md_flexion_l	3mcp_flexion_l	3mcp_abduction_l	3pm_flexion_l	3md_flexion_l	4mcp_flexion_l	4mcp_abduction_l	4pm_flexion_l	4md_flexion_l	5mcp_flexion_l	5mcp_abduction_l	5pm_flexion_l	5md_flexion_l
0.005000	-1.089067	-4.156866	93.821839	0.157555	-0.262963	0.149317	97.156300	18.673261	22.143550	-8.546233	30.926097	-22.487355	-19.432564	55.379753	11.168931	27.739317	25.716976	51.833296	7.540288	34.827181	58.105429	39.609444	-6.280116	54.444136	53.351278	20.850170	-8.822792	45.143790	44.317352
0.015000	-1.089067	-4.156866	93.821839	0.157060	-0.262251	0.148326	96.383048	18.344553	21.324544	-7.822351	30.542607	-22.832145	-21.498370	56.275457	11.116614	27.525645	25.953351	51.796903	7.457079	35.656996	59.715916	39.529957	-6.442334	55.250934	54.926208	20.894056	-8.439856	45.238530	44.435334
0.025000	-1.089067	-4.156866	93.821839	0.156479	-0.261559	0.147252	95.593967	18.029492	20.490856	-7.051838	30.328874	-23.095135	-23.779258	57.152763	11.054429	27.329434	26.171808	51.741618	7.382133	36.476870	61.343961	39.467864	-6.590427	55.975510	56.573274	20.902409	-8.094778	45.372571	44.598228
0.035000	-1.089067	-4.156866	93.821839	0.155843	-0.260983	0.146130	94.837602	17.748122	19.735541	-6.322994	30.297915	-23.248999	-26.056801	57.910506	10.997363	27.182945	26.352084	51.668451	7.320989	37.207735	62.807557	39.417570	-6.708750	56.531829	58.180806	20.926731	-7.827483	45.491799	44.730059
0.045000	-1.089067	-4.156866	93.821839	0.155184	-0.260586	0.145034	94.176641	17.525459	19.123887	-5.713162	30.438197	-23.280796	-28.112401	58.464931	10.957812	27.104274	26.481886	51.590404	7.275079	37.776042	63.946918	39.380059	-6.788526	56.862085	59.617008	20.997943	-7.654817	45.553041	44.775281
0.055000	-1.089067	-4.156866	93.821839	0.154520	-0.260389	0.144058	93.670704	17.384768	18.670788	-5.265834	30.715443	-23.202334	-29.792048	58.785290	10.940470	27.091873	26.559088	51.530248	7.242387	38.138984	64.678072	39.366102	-6.830790	56.959036	60.769229	21.119769	-7.566730	45.542859	44.720820
0.065000	-1.089067	-4.156866	93.821839	0.153862	-0.260365	0.143290	93.357144	17.339124	18.341212	-4.981229	31.080908	-23.048971	-31.041195	58.904300	10.940732	27.129019	26.588533	51.511227	7.219178	38.300700	65.010816	39.391454	-6.845046	56.869886	61.574377	21.275750	-7.534233	45.480560	44.595529
0.075000	-1.089067	-4.156866	93.821839	0.153219	-0.260463	0.142780	93.238266	17.385070	18.072565	-4.823920	31.483591	-22.867325	-31.899586	58.900514	10.947897	27.193593	26.575474	51.547366	7.201829	38.309363	65.028014	39.468268	-6.844647	56.678375	62.030975	21.443695	-7.524046	45.405908	44.449545
0.085000	-1.089067	-4.156866	93.821839	0.152608	-0.260622	0.142525	93.280483	17.501521	17.806270	-4.742306	31.881316	-22.698290	-32.465913	58.864109	10.951226	27.266203	26.521414	51.639385	7.187912	38.234839	64.844646	39.598493	-6.841399	56.472609	62.192885	21.607819	-7.511760	45.359444	44.327379
0.095000	-1.089067	-4.156866	93.821839	0.152055	-0.260792	0.142474	93.425339	17.654840	17.512034	-4.689938	32.245857	-22.564215	-32.851887	58.864592	10.944817	27.332295	26.426274	51.777800	7.176352	38.136971	64.572299	39.772628	-6.841852	56.313710	62.150683	21.762512	-7.487363	45.365236	44.250125
0.105000	-1.089067	-4.156866	93.821839	0.151587	-0.260943	0.142548	93.607364	17.808214	17.194296	-4.639565	32.561150	-22.466294	-33.144445	58.934322	10.928506	27.379387	26.294583	51.949829	7.166964	38.039995	64.303149	39.973214	-6.846530	56.219245	62.008285	21.908595	-7.452491	45.422591	44.213671
0.115000	-1.089067	-4.156866	93.821839	0.151226	-0.261061	0.142662	93.771679	17.931582	16.881603	-4.585721	32.817973	-22.392030	-33.387449	59.070055	10.905437	27.394768	26.139346	52.144454	7.159781	37.926978	64.108377	40.180086	-6.851809	56.167166	61.860534	22.046976	-7.413539	45.508598	44.198904
0.125000	-1.089067	-4.156866	93.821839	0.150974	-0.261149	0.142754	93.885510	18.008396	16.608187	-4.537688	33.009849	-22.327159	-33.584787	59.245268	10.879127	27.368309	25.979621	52.351970	7.154569	37.758922	64.036454	40.374352	-6.853083	56.116361	61.774811	22.174152	-7.375695	45.589521	44.184501
0.135000	-1.089067	-4.156866	93.821839	0.150814	-0.261212	0.142798	93.941029	18.037008	16.398283	-4.508372	33.132869	-22.264997	-33.718880	59.424269	10.852199	27.299886	25.833896	52.558947	7.150720	37.509366	64.103686	40.539752	-6.847571	56.033365	61.779235	22.281503	-7.340690	45.636074	44.155032
0.145000	-1.089067	-4.156866	93.821839	0.150718	-0.261254	0.142799	93.950419	18.026849	16.259071	-4.504886	33.188918	-22.209043	-33.774446	59.573081	10.826825	27.205706	25.715024	52.743595	7.147420	37.194880	64.283392	40.662221	-6.835713	55.912874	61.860938	22.358015	-7.307991	45.635817	44.103269
0.155000	-1.089067	-4.156866	93.821839	0.150656	-0.261281	0.142785	93.936293	17.991818	16.182182	-4.524349	33.189260	-22.169139	-33.756791	59.666504	10.805487	27.117131	25.630496	52.876973	7.143883	36.882252	64.507167	40.729995	-6.820875	55.782760	61.976710	22.394582	-7.277230	45.597100	44.030275
0.165000	-1.089067	-4.156866	93.821839	0.150607	-0.261298	0.142792	93.921325	17.944271	16.150159	-4.555357	33.155064	-22.154747	-33.696692	59.692623	10.790837	27.069958	25.586349	52.931957	7.139525	36.665317	64.685914	40.736098	-6.807831	55.691292	62.073595	22.387840	-7.249583	45.543214	43.946068
0.175000	-1.089067	-4.156866	93.821839	0.150559	-0.261311	0.142845	93.920404	17.892069	16.143723	-4.583238	33.113192	-22.169308	-33.640011	59.655312	10.784567	27.088627	25.589132	52.896240	7.134085	36.622022	64.744455	40.682688	-6.800755	55.682801	62.111474	22.342341	-7.227251	45.500298	43.869126
0.185000	-1.089067	-4.156866	93.821839	0.150511	-0.261327	0.142950	93.937381	17.839068	16.146997	-4.596188	33.088585	-22.208119	-33.627715	59.573832	10.786203	27.173838	25.641903	52.781724	7.127731	36.775199	64.652036	40.584271	-6.801562	55.774263	62.077467	22.270757	-7.211816	45.485345	43.820739
0.195000	-1.089067	-4.156866	93.821839	0.150469	-0.261349	0.143092	93.966641	17.787480	16.149624	-4.589609	33.096802	-22.259893	-33.677425	59.478208	10.792808	27.300943	25.736424	52.623636	7.121081	37.079516	64.431733	40.466384	-6.809260	55.945507	61.985865	22.191676	-7.202892	45.500191	43.814406
